<svg width="160" height="49" viewBox="0 0 160 49" fill="none" xmlns="http://www.w3.org/2000/svg">
<g id="Link &#226;&#134;&#146; SVG" clip-path="url(#clip0_2_2163)">
<g id="Clip path group">
<mask id="mask0_2_2163" style="mask-type:luminance" maskUnits="userSpaceOnUse" x="0" y="0" width="160" height="49">
<g id="a">
<path id="Vector" d="M0 0.5H160V48.5H0V0.5Z" fill="white"/>
</g>
</mask>
<g mask="url(#mask0_2_2163)">
<g id="Group">
<path id="Vector_2" d="M6.4 0.5C4.70261 0.5 3.07475 1.17428 1.87452 2.37452C0.674284 3.57475 0 5.20261 0 6.9L0 42.1C0 43.7974 0.674284 45.4253 1.87452 46.6255C3.07475 47.8257 4.70261 48.5 6.4 48.5H153.6C155.297 48.5 156.925 47.8257 158.125 46.6255C159.326 45.4253 160 43.7974 160 42.1V6.9C160 5.20261 159.326 3.57475 158.125 2.37452C156.925 1.17428 155.297 0.5 153.6 0.5L6.4 0.5Z" fill="black"/>
<path id="Vector_3" fill-rule="evenodd" clip-rule="evenodd" d="M61.414 37.363H64.104L58.216 20.884H55.493L49.606 37.364H52.206L53.708 32.989H59.922L61.414 37.363ZM56.724 23.877H56.917L59.278 30.843H54.352L56.724 23.877ZM71.234 24.722C69.561 24.722 68.114 25.567 67.369 26.982H67.189V24.927H64.849V41.394H67.279V35.48H67.471C68.115 36.793 69.505 37.57 71.256 37.57C74.363 37.57 76.341 35.092 76.341 31.14C76.341 27.19 74.363 24.722 71.234 24.722ZM70.544 35.365C68.51 35.365 67.234 33.743 67.234 31.151C67.234 28.547 68.51 26.925 70.556 26.925C72.612 26.925 73.844 28.513 73.844 31.139C73.844 33.777 72.612 35.365 70.544 35.365ZM83.833 24.722C82.16 24.722 80.714 25.567 79.968 26.982H79.788V24.927H77.448V41.394H79.878V35.48H80.07C80.714 36.793 82.104 37.57 83.855 37.57C86.962 37.57 88.94 35.092 88.94 31.14C88.94 27.19 86.962 24.722 83.833 24.722ZM83.143 35.365C81.109 35.365 79.833 33.743 79.833 31.151C79.833 28.547 81.109 26.925 83.155 26.925C85.211 26.925 86.443 28.513 86.443 31.139C86.443 33.777 85.211 35.365 83.143 35.365ZM94.083 32.932C94.263 35.879 96.693 37.762 100.308 37.762C104.172 37.762 106.59 35.787 106.59 32.635C106.59 30.157 105.212 28.787 101.867 27.999L100.071 27.554C97.947 27.051 97.088 26.377 97.088 25.201C97.088 23.717 98.421 22.746 100.421 22.746C102.319 22.746 103.63 23.694 103.867 25.213H106.33C106.183 22.438 103.765 20.485 100.455 20.485C96.895 20.485 94.523 22.438 94.523 25.372C94.523 27.793 95.867 29.232 98.817 29.929L100.918 30.443C103.076 30.957 104.025 31.71 104.025 32.967C104.025 34.428 102.534 35.49 100.5 35.49C98.32 35.49 96.805 34.497 96.59 32.932H94.083ZM108.681 21.912V24.984H106.659V27.051H108.681V34.074C108.681 36.472 109.755 37.432 112.455 37.432C112.93 37.432 113.37 37.374 113.755 37.306V35.262C113.416 35.296 113.224 35.319 112.851 35.319C111.642 35.319 111.111 34.748 111.111 33.446V27.051H113.868V24.984H111.111V21.912H108.681ZM119.891 35.422C117.778 35.422 116.591 33.857 116.591 31.139C116.591 28.444 117.778 26.869 119.891 26.869C121.992 26.869 123.19 28.444 123.19 31.139C123.19 33.846 121.992 35.422 119.891 35.422ZM119.891 37.602C123.484 37.602 125.687 35.171 125.687 31.139C125.687 27.131 123.472 24.687 119.891 24.687C116.298 24.687 114.083 27.131 114.083 31.139C114.083 35.17 116.286 37.602 119.891 37.602ZM126.795 37.363H129.224V30.02C129.224 28.273 130.524 27.097 132.354 27.097C132.761 27.097 133.507 27.177 133.699 27.245V24.825C133.439 24.755 132.976 24.722 132.625 24.722C131.021 24.722 129.665 25.612 129.315 26.834H129.134V24.927H126.795V37.363ZM139.168 26.777C140.965 26.777 142.14 28.045 142.196 29.997H135.982C136.117 28.057 137.372 26.777 139.168 26.777ZM142.185 34.006C141.733 34.976 140.728 35.513 139.259 35.513C137.315 35.513 136.061 34.131 135.982 31.95V31.813H144.671V30.957C144.671 27.051 142.603 24.687 139.18 24.687C135.711 24.687 133.507 27.211 133.507 31.185C133.507 35.159 135.666 37.603 139.191 37.603C142.004 37.603 143.97 36.233 144.524 34.006H142.185ZM35.63 24.729C35.594 20.746 38.857 18.808 39.006 18.718C37.158 15.995 34.295 15.623 33.288 15.593C30.883 15.338 28.55 17.048 27.325 17.048C26.075 17.048 24.188 15.618 22.155 15.66C19.538 15.7 17.09 17.232 15.747 19.61C12.977 24.458 15.043 31.583 17.697 35.502C19.026 37.422 20.577 39.564 22.608 39.488C24.595 39.407 25.338 38.208 27.735 38.208C30.111 38.208 30.808 39.488 32.88 39.439C35.012 39.407 36.355 37.512 37.636 35.575C39.171 33.377 39.787 31.208 39.812 31.097C39.763 31.081 35.672 29.503 35.63 24.729ZM31.717 13.015C32.786 11.665 33.517 9.82701 33.314 7.96201C31.767 8.03201 29.833 9.04301 28.719 10.364C27.733 11.529 26.853 13.437 27.08 15.231C28.818 15.362 30.602 14.345 31.717 13.015Z" fill="white"/>
<path id="Vector_4" d="M52.035 15.7H57.225V17.259H58.718V14.333H57.734V7.80899H52.139L51.866 12.266C51.8 13.338 51.641 13.956 51.089 14.333H50.537V17.259H52.035V15.7ZM53.385 12.391L53.594 9.16499H56.082V14.333H52.861V14.289C53.211 13.879 53.326 13.272 53.386 12.391H53.385ZM62.56 15.826C64.331 15.826 65.463 14.694 65.463 12.763C65.463 10.86 64.32 9.71199 62.559 9.71199C60.804 9.71199 59.656 10.866 59.656 12.763C59.656 14.688 60.788 15.826 62.559 15.826H62.56ZM62.56 14.606C61.777 14.606 61.28 13.944 61.28 12.769C61.28 11.604 61.783 10.931 62.56 10.931C63.342 10.931 63.845 11.604 63.845 12.769C63.845 13.944 63.342 14.606 62.559 14.606H62.56ZM72.034 12.02C71.957 10.69 70.956 9.71199 69.365 9.71199C67.61 9.71199 66.488 10.882 66.488 12.763C66.488 14.677 67.609 15.826 69.376 15.826C70.918 15.826 71.952 14.934 72.039 13.551H70.552C70.448 14.191 70.032 14.573 69.392 14.573C68.605 14.573 68.107 13.917 68.107 12.763C68.107 11.631 68.599 10.964 69.387 10.964C70.049 10.964 70.459 11.402 70.547 12.02H72.034ZM77.855 9.83799H72.769V11.041H74.513V15.7H76.11V11.04H77.855V9.83799ZM79.744 17.871C81.242 17.871 81.975 17.33 82.478 15.826L84.496 9.83699H82.812L81.565 14.42H81.538L80.29 9.83799H78.534L80.574 15.7C80.585 15.727 80.525 15.957 80.525 15.984C80.415 16.449 80.125 16.635 79.541 16.635C79.481 16.635 79.191 16.63 79.141 16.619V17.855C79.191 17.865 79.688 17.871 79.743 17.871H79.744ZM89.295 15.7H90.892V9.83799H85.51V15.7H87.107V11.04H89.295V15.7ZM96.215 15.7H97.812V9.83799H96.215V12.091H93.973V9.83799H92.376V15.7H93.973V13.3H96.215V15.7ZM101.971 15.826C103.743 15.826 104.875 14.694 104.875 12.763C104.875 10.86 103.732 9.71199 101.971 9.71199C100.215 9.71199 99.067 10.866 99.067 12.763C99.067 14.688 100.199 15.826 101.971 15.826ZM101.971 14.606C101.189 14.606 100.691 13.944 100.691 12.769C100.691 11.604 101.194 10.931 101.971 10.931C102.753 10.931 103.256 11.604 103.256 12.769C103.256 13.944 102.753 14.606 101.971 14.606ZM111.677 15.7C113.006 15.7 113.837 15.033 113.837 14.005C113.837 13.272 113.296 12.735 112.514 12.637V12.594C113.115 12.501 113.575 11.954 113.575 11.325C113.575 10.395 112.842 9.83799 111.622 9.83799H108.686V15.7H111.677ZM110.255 10.85H111.19C111.715 10.85 112.011 11.095 112.011 11.533C112.011 11.976 111.694 12.222 111.108 12.222H110.255V10.849V10.85ZM110.255 13.146H111.19C111.869 13.146 112.229 13.409 112.229 13.906C112.229 14.415 111.885 14.688 111.261 14.688H110.255V13.146Z" fill="white"/>
</g>
</g>
</g>
</g>
<defs>
<clipPath id="clip0_2_2163">
<rect width="160" height="48" fill="white" transform="translate(0 0.5)"/>
</clipPath>
</defs>
</svg>
