<svg width="64" height="64" viewBox="0 0 64 64" fill="none" xmlns="http://www.w3.org/2000/svg">
<g id="facebook">
<path id="bg" d="M0 32C0 49.6731 14.3269 64 32 64C49.6731 64 64 49.6731 64 32C64 14.3269 49.6731 0 32 0C14.3269 0 0 14.3269 0 32Z" fill="#1877F2"/>
<path id="facebook_2" d="M48 32C48 23.2 40.8 16 32 16C23.2 16 16 23.2 16 32C16 40 21.8 46.6 29.4 47.8V36.6H25.4V32H29.4V28.4C29.4 24.4 31.8 22.2 35.4 22.2C37.2 22.2 39 22.6 39 22.6V26.6H37C35 26.6 34.4 27.8 34.4 29V32H38.8L38 36.6H34.2V48C42.2 46.8 48 40 48 32Z" fill="white"/>
</g>
</svg>
