<svg width="160" height="49" viewBox="0 0 160 49" fill="none" xmlns="http://www.w3.org/2000/svg">
<g id="Link &#226;&#134;&#146; SVG" clip-path="url(#clip0_2_2142)">
<g id="Clip path group">
<mask id="mask0_2_2142" style="mask-type:luminance" maskUnits="userSpaceOnUse" x="0" y="0" width="160" height="49">
<g id="a">
<path id="Vector" d="M0 0.5H160V48.5H0V0.5Z" fill="white"/>
</g>
</mask>
<g mask="url(#mask0_2_2142)">
<g id="Group">
<path id="Vector_2" d="M6.4 0.5C4.70261 0.5 3.07475 1.17428 1.87452 2.37452C0.674284 3.57475 0 5.20261 0 6.9L0 42.1C0 43.7974 0.674284 45.4253 1.87452 46.6255C3.07475 47.8257 4.70261 48.5 6.4 48.5H153.6C155.297 48.5 156.925 47.8257 158.125 46.6255C159.326 45.4253 160 43.7974 160 42.1V6.9C160 5.20261 159.326 3.57475 158.125 2.37452C156.925 1.17428 155.297 0.5 153.6 0.5L6.4 0.5Z" fill="black"/>
<path id="Vector_3" d="M56.566 14.433V17.092H55.126V15.7H50.384V17.092H48.944L48.954 14.432H49.222C49.626 14.42 49.91 14.126 50.077 13.549C50.243 12.974 50.346 12.151 50.384 11.082L50.461 8.98H55.626V14.433H56.566ZM51.756 11.226C51.725 12.026 51.658 12.698 51.556 13.242C51.453 13.78 51.296 14.177 51.085 14.432H54.09V10.248H51.786L51.756 11.228V11.226ZM60.82 15.815C60.1616 15.8247 59.5112 15.6697 58.928 15.364C58.3861 15.077 57.9317 14.6489 57.613 14.125C57.2969 13.5838 57.1344 12.9667 57.143 12.34C57.143 11.68 57.3 11.089 57.613 10.564C57.933 10.033 58.372 9.617 58.929 9.316C59.5116 9.01064 60.1613 8.85561 60.819 8.865C61.517 8.865 62.144 9.015 62.701 9.316C63.2488 9.60691 63.706 10.0429 64.0226 10.5763C64.3392 11.1096 64.503 11.7198 64.496 12.34C64.496 13 64.336 13.594 64.016 14.126C63.696 14.65 63.258 15.063 62.701 15.364C62.145 15.664 61.517 15.815 60.82 15.815ZM60.82 14.49C61.217 14.49 61.575 14.4 61.895 14.222C62.215 14.036 62.465 13.78 62.644 13.454C62.829 13.127 62.922 12.756 62.922 12.34C62.922 11.924 62.829 11.553 62.644 11.226C62.4716 10.9068 62.2113 10.6438 61.894 10.468C61.5673 10.2809 61.1964 10.1849 60.82 10.19C60.423 10.19 60.065 10.282 59.745 10.468C59.425 10.648 59.172 10.9 58.986 11.226C58.806 11.553 58.717 11.924 58.717 12.34C58.717 12.756 58.807 13.127 58.987 13.454C59.172 13.78 59.425 14.036 59.745 14.222C60.065 14.401 60.423 14.49 60.82 14.49ZM68.872 15.815C68.2244 15.824 67.5847 15.6725 67.01 15.374C66.46 15.073 66.024 14.66 65.704 14.135C65.387 13.5905 65.2245 12.9699 65.234 12.34C65.234 11.674 65.391 11.08 65.704 10.554C66.0175 10.0293 66.4693 9.60099 67.01 9.316C67.567 9.016 68.19 8.865 68.882 8.865C69.464 8.865 69.989 8.967 70.456 9.172C70.93 9.377 71.326 9.672 71.646 10.055L70.648 10.977C70.194 10.452 69.631 10.19 68.958 10.19C68.543 10.19 68.171 10.282 67.845 10.468C67.519 10.648 67.263 10.9 67.077 11.226C66.897 11.553 66.808 11.924 66.808 12.34C66.808 12.756 66.898 13.127 67.077 13.454C67.263 13.78 67.519 14.036 67.845 14.222C68.171 14.401 68.543 14.49 68.959 14.49C69.631 14.49 70.194 14.225 70.649 13.694L71.647 14.615C71.327 15.005 70.93 15.303 70.457 15.508C69.9554 15.7184 69.4158 15.8229 68.872 15.815ZM77.73 10.247H75.58V15.7H74.044V10.247H71.904V8.98H77.731L77.73 10.247Z" fill="white"/>
<path id="Vector_4" d="M84.484 8.98001L81.623 14.298C81.348 14.81 81.015 15.198 80.624 15.46C80.2554 15.7173 79.8165 15.8545 79.367 15.853C79.015 15.853 78.65 15.777 78.272 15.623L78.647 14.443C78.916 14.525 79.14 14.567 79.319 14.567C79.511 14.567 79.684 14.522 79.837 14.433C79.991 14.337 80.132 14.19 80.26 13.991L80.317 13.914L77.667 8.98001H79.329L81.114 12.59L82.957 8.98001H84.484ZM91.347 8.98001V15.7H89.802V10.247H86.768V15.7H85.223V8.98001H91.347ZM99.177 8.98001V15.7H97.62V12.945H94.57V15.7H93.014V8.98001H94.569V11.63H97.622V8.98001H99.177ZM104.067 15.815C103.369 15.815 102.739 15.665 102.175 15.364C101.633 15.0768 101.179 14.6488 100.86 14.125C100.544 13.5837 100.382 12.9666 100.39 12.34C100.381 11.7161 100.543 11.1017 100.86 10.564C101.18 10.033 101.619 9.61701 102.175 9.31601C102.758 9.01052 103.409 8.8555 104.067 8.86501C104.764 8.86501 105.391 9.01501 105.948 9.31601C106.496 9.60683 106.953 10.0428 107.27 10.5762C107.586 11.1096 107.75 11.7198 107.743 12.34C107.743 13 107.583 13.594 107.263 14.126C106.943 14.65 106.505 15.063 105.948 15.364C105.391 15.664 104.764 15.815 104.067 15.815ZM104.067 14.49C104.463 14.49 104.822 14.4 105.142 14.222C105.458 14.0402 105.717 13.7744 105.891 13.454C106.076 13.127 106.169 12.756 106.169 12.34C106.169 11.924 106.076 11.553 105.891 11.226C105.719 10.9072 105.459 10.6442 105.142 10.468C104.815 10.2808 104.444 10.1848 104.067 10.19C103.67 10.19 103.311 10.282 102.991 10.468C102.671 10.648 102.419 10.9 102.233 11.226C102.05 11.5683 101.957 11.9518 101.964 12.34C101.964 12.756 102.054 13.127 102.233 13.454C102.419 13.78 102.671 14.036 102.991 14.222C103.311 14.401 103.67 14.49 104.067 14.49ZM116.316 12.196C116.726 12.318 117.039 12.516 117.257 12.791C117.475 13.066 117.583 13.405 117.583 13.809C117.583 14.404 117.356 14.868 116.902 15.201C116.454 15.533 115.811 15.7 114.972 15.7H111.66V8.98001H114.79C115.571 8.98001 116.179 9.13001 116.614 9.43101C117.049 9.73201 117.267 10.161 117.267 10.718C117.267 11.05 117.183 11.345 117.017 11.601C116.851 11.851 116.617 12.049 116.316 12.196ZM113.206 11.764H114.655C114.995 11.764 115.251 11.697 115.423 11.562C115.596 11.422 115.683 11.217 115.683 10.948C115.683 10.685 115.593 10.484 115.414 10.343C115.241 10.203 114.988 10.132 114.655 10.132H113.206V11.764ZM114.915 14.548C115.644 14.548 116.009 14.26 116.009 13.684C116.009 13.127 115.644 12.849 114.915 12.849H113.206V14.548H114.915Z" fill="white"/>
<path id="Vector_5" fill-rule="evenodd" clip-rule="evenodd" d="M122.307 22.03H116.207V31.436H122.307C122.307 31.436 125.819 30.829 125.819 26.733C125.819 22.637 122.307 22.03 122.307 22.03ZM121.532 24.305H117.391V29.353H121.532C121.532 29.353 123.416 29.353 123.416 26.829C123.416 24.305 121.532 24.305 121.532 24.305Z" fill="white"/>
<path id="Vector_6" fill-rule="evenodd" clip-rule="evenodd" d="M115.669 22.03H117.821V37.331H115.669V22.03ZM127.075 22.03H129.227V37.331H127.075V22.03ZM134.976 27.167C131.966 27.167 130.963 29.267 130.963 29.267L132.755 30.343C132.755 30.343 133.188 29.267 135.147 29.267C136.574 29.267 137.049 30.361 137.203 30.957V31.407C136.578 31.097 135.225 30.611 133.293 30.903C130.674 31.299 130.726 33.705 130.734 34.085L130.735 34.121C130.735 34.336 130.737 37.514 134.165 37.296C135.662 37.201 136.61 36.734 137.203 36.236V37.326H139.355V30.672C139.355 29.789 138.718 27.167 134.976 27.167ZM132.759 34.19C132.903 31.825 137.049 32.96 137.049 32.96C137.049 32.96 137.105 33.21 137.105 33.743C136.737 35.42 132.615 36.556 132.759 34.19Z" fill="white"/>
<path id="Vector_7" d="M144.469 34.155L141.708 27.495H139.556L143.393 36.751L141.385 41.593H143.537L149.36 27.548H147.208L144.469 34.155Z" fill="white"/>
<path id="Vector_8" fill-rule="evenodd" clip-rule="evenodd" d="M106.3 27.167C109.908 27.167 110.851 31.071 110.851 31.071L104.045 33.928C104.045 33.928 104.485 35.508 106.531 35.519C108.134 35.528 109.038 34.077 109.038 34.077L110.765 35.265C110.765 35.265 109.371 37.554 106.518 37.554C103.011 37.554 101.466 34.439 101.466 32.416C101.466 30.467 102.692 27.167 106.3 27.167ZM106.092 29.183C107.406 28.939 108.262 30.263 108.262 30.263L103.664 32.168C103.664 32.168 103.314 29.699 106.092 29.183ZM98.238 22.03H100.515V37.3H98.238V22.03ZM94.595 28.452V27.499L96.699 27.517V37.151C96.699 39.613 95.256 42.211 91.859 42.211C88.463 42.211 87.366 39.154 87.366 39.154L89.299 38.328C89.299 38.328 89.889 40.212 91.96 40.212C94.32 40.212 94.595 38.032 94.595 37.286V36.24C94.595 36.24 93.779 37.538 91.751 37.538C89.552 37.538 86.941 35.625 86.941 32.364C86.941 29.102 89.4 27.236 91.776 27.169C93.68 27.114 94.595 28.452 94.595 28.452ZM94.709 32.392C94.709 34.152 93.465 35.581 91.931 35.581C90.396 35.581 89.151 34.153 89.151 32.391C89.151 30.63 90.396 29.201 91.931 29.201C93.465 29.201 94.709 30.631 94.709 32.392ZM85.995 32.358C85.995 35.225 83.701 37.55 80.872 37.55C78.043 37.55 75.75 35.225 75.75 32.358C75.75 29.491 78.043 27.167 80.872 27.167C83.702 27.167 85.995 29.491 85.995 32.358ZM83.718 32.358C83.718 34.101 82.429 35.514 80.838 35.514C79.248 35.514 77.96 34.101 77.96 32.358C77.96 30.616 79.249 29.203 80.839 29.203C82.429 29.203 83.718 30.616 83.718 32.358ZM74.912 32.358C74.912 35.225 72.619 37.55 69.79 37.55C66.96 37.55 64.667 35.225 64.667 32.358C64.667 29.491 66.96 27.167 69.79 27.167C72.619 27.167 74.912 29.491 74.912 32.358ZM72.635 32.358C72.635 34.101 71.346 35.514 69.756 35.514C68.166 35.514 66.876 34.101 66.876 32.358C66.876 30.616 68.166 29.203 69.756 29.203C71.346 29.203 72.635 30.616 72.635 32.358ZM56.563 28.813H63.326L63.259 30.984H56.562L56.563 28.813Z" fill="white"/>
<path id="Vector_9" d="M56.462 37.567C60.918 37.607 64.634 34.423 63.891 28.893V28.813H61.915C61.931 29.043 61.936 29.281 61.931 29.525C61.936 33.475 59.691 35.327 56.529 35.327C53.367 35.327 50.804 32.73 50.804 29.525C50.804 26.321 53.367 23.723 56.529 23.723C58.111 23.723 59.482 24.272 60.447 25.272L61.995 23.703C60.678 22.295 58.753 21.483 56.462 21.483C52.08 21.483 48.527 25.084 48.527 29.525C48.527 33.967 52.08 37.56 56.462 37.567Z" fill="white"/>
<path id="Vector_10" fill-rule="evenodd" clip-rule="evenodd" d="M34.406 20.783C37.225 22.411 37.225 26.481 34.406 28.11L18.097 37.532C15.277 39.162 11.75 37.126 11.75 33.868V15.025C11.75 11.767 15.277 9.73199 18.097 11.361L34.406 20.783Z" fill="url(#paint0_linear_2_2142)"/>
<g id="Mask group">
<mask id="mask1_2_2142" style="mask-type:alpha" maskUnits="userSpaceOnUse" x="11" y="10" width="26" height="29">
<g id="Group_2">
<path id="Vector_11" fill-rule="evenodd" clip-rule="evenodd" d="M34.406 20.783C37.225 22.411 37.225 26.481 34.406 28.11L18.097 37.532C15.277 39.162 11.75 37.126 11.75 33.868V15.025C11.75 11.767 15.277 9.73199 18.097 11.361L34.406 20.783Z" fill="white"/>
</g>
</mask>
<g mask="url(#mask1_2_2142)">
<g id="Group_3">
<path id="Vector_12" fill-rule="evenodd" clip-rule="evenodd" d="M11.728 9.014L26.77 24.198L11.534 39.983L11.728 9.013V9.014Z" fill="url(#paint1_linear_2_2142)"/>
<path id="Vector_13" fill-rule="evenodd" clip-rule="evenodd" d="M8.635 5.888L26.768 24.202L32.158 18.979L8.635 5.888Z" fill="url(#paint2_linear_2_2142)"/>
<path id="Vector_14" fill-rule="evenodd" clip-rule="evenodd" d="M26.77 24.2L35.023 32.648L10.368 41.098L26.77 24.199V24.2Z" fill="url(#paint3_linear_2_2142)"/>
</g>
</g>
</g>
</g>
</g>
</g>
</g>
<defs>
<linearGradient id="paint0_linear_2_2142" x1="39.017" y1="18.436" x2="28.407" y2="18.436" gradientUnits="userSpaceOnUse">
<stop stop-color="#FBDA09"/>
<stop offset="1" stop-color="#FFBC00"/>
</linearGradient>
<linearGradient id="paint1_linear_2_2142" x1="13.011" y1="37.855" x2="24.185" y2="36.316" gradientUnits="userSpaceOnUse">
<stop stop-color="#01E2FF"/>
<stop offset="1" stop-color="#01C4FF"/>
</linearGradient>
<linearGradient id="paint2_linear_2_2142" x1="5.935" y1="15.388" x2="17.218" y2="29.875" gradientUnits="userSpaceOnUse">
<stop stop-color="#28D781"/>
<stop offset="1" stop-color="#02F076"/>
</linearGradient>
<linearGradient id="paint3_linear_2_2142" x1="19.641" y1="21.705" x2="9.966" y2="37.876" gradientUnits="userSpaceOnUse">
<stop stop-color="#F2414E"/>
<stop offset="1" stop-color="#E02554"/>
</linearGradient>
<clipPath id="clip0_2_2142">
<rect width="160" height="48" fill="white" transform="translate(0 0.5)"/>
</clipPath>
</defs>
</svg>
