<svg width="155" height="37" viewBox="0 0 155 37" fill="none" xmlns="http://www.w3.org/2000/svg">
<g id="Group 21939">
<g id="Group 21938">
<g id="Group 21959">
<path id="Vector" d="M36.5928 36.9904C34.7809 36.9904 32.3907 34.2295 30.5483 31.6422C31.3707 30.9861 32.0347 30.153 32.4909 29.205C32.9471 28.257 33.1837 27.2183 33.1832 26.1662V7.017C33.1832 5.15598 32.4439 3.37117 31.128 2.05523C29.812 0.739289 28.0272 0 26.1662 0H7.017C5.15598 0 3.37118 0.739289 2.05523 2.05523C0.739289 3.37117 0 5.15598 0 7.017V26.1662C0 28.0272 0.739289 29.812 2.05523 31.128C3.37118 32.4439 5.15598 33.1832 7.017 33.1832H21.652C27.2916 37.3808 39.7531 36.9904 36.5928 36.9904Z" fill="white"/>
<path id="Vector_2" d="M12.6306 11.9496H7.65753C7.03797 11.9496 6.53571 12.4518 6.53571 13.0714V18.0445C6.53571 18.664 7.03797 19.1663 7.65753 19.1663H12.6306C13.2502 19.1663 13.7524 18.664 13.7524 18.0445V13.0714C13.7524 12.4518 13.2502 11.9496 12.6306 11.9496Z" fill="#7D84B2"/>
<path id="Vector_3" d="M25.4159 11.9496H20.4429C19.8233 11.9496 19.321 12.4518 19.321 13.0714V18.0445C19.321 18.664 19.8233 19.1663 20.4429 19.1663H25.4159C26.0355 19.1663 26.5378 18.664 26.5378 18.0445V13.0714C26.5378 12.4518 26.0355 11.9496 25.4159 11.9496Z" fill="#7D84B2"/>
</g>
<path id="Vector_4" d="M62.7229 14.4336L57.228 14.7779C57.1515 11.6177 55.919 10.0377 53.5306 10.0377C50.7913 10.0377 49.4216 12.4706 49.4216 17.3363C49.4216 20.1464 49.7958 22.0516 50.5443 23.052C51.2928 24.0525 52.3323 24.5515 53.6629 24.549C55.8326 24.549 57.1582 23.1385 57.6397 20.3177L62.7242 20.6283C62.3957 23.3078 61.3977 25.3452 59.7303 26.7407C58.063 28.1361 56.0213 28.833 53.6055 28.8314C50.6416 28.8314 48.2332 27.8093 46.3804 25.7652C44.5276 23.7211 43.6007 20.8936 43.5999 17.2827C43.5999 13.9047 44.4968 11.1383 46.2906 8.98358C48.0844 6.82886 50.5335 5.75192 53.6379 5.75275C59.016 5.75524 62.0443 8.64886 62.7229 14.4336Z" fill="white"/>
<path id="Vector_5" d="M70.2511 6.10205V14.1754C71.1468 12.4448 72.6391 11.5795 74.7281 11.5795C75.8433 11.5795 76.7972 11.8227 77.5897 12.3092C78.3323 12.7407 78.9172 13.3986 79.2588 14.1866C79.5815 14.9525 79.7428 16.0752 79.7428 17.5547V28.4933H74.8591V19.1501C74.8591 18.0341 74.8155 17.2678 74.7281 16.8511C74.6489 16.4476 74.4394 16.0813 74.1319 15.8083C73.81 15.5246 73.3919 15.3746 72.963 15.3891C72.3526 15.3891 71.748 15.6274 71.1493 16.1039C70.5505 16.5804 70.2511 17.5958 70.2511 19.1501V28.4933H65.5109V6.10205H70.2511Z" fill="white"/>
<path id="Vector_6" d="M98.2309 28.4884H93.4907C93.3368 27.8323 93.2603 26.9686 93.2612 25.8975C92.4295 27.0792 91.6025 27.8639 90.78 28.2514C89.8988 28.6512 88.9396 28.8498 87.9721 28.8327C86.4211 28.8327 85.1683 28.4119 84.2136 27.5703C83.2589 26.7287 82.7815 25.5969 82.7815 24.1748C82.7753 23.1577 83.0653 22.1608 83.6161 21.3057C84.1724 20.4317 85.0677 19.7456 86.3018 19.2475C87.5359 18.7493 89.7846 18.3805 93.0478 18.141V17.1892C93.0478 15.5825 92.2466 14.7792 90.6441 14.7792C88.9326 14.7792 87.9787 15.5825 87.7825 17.1892L83.273 16.7639C83.5682 14.8827 84.4593 13.5488 85.9462 12.7621C87.4332 11.9754 89.1172 11.5816 90.9983 11.5808C92.0711 11.5742 93.1403 11.7063 94.1793 11.9737C95.1772 12.2374 95.9535 12.6311 96.5082 13.1551C97.0176 13.6077 97.4064 14.18 97.6396 14.8204C97.8367 15.4025 97.9353 16.4221 97.9353 17.8791V25.3886C97.9353 26.8322 98.0338 27.8655 98.2309 28.4884ZM93.0478 20.551C89.6382 20.8903 87.9334 21.9236 87.9334 23.6509C87.9243 24.1989 88.116 24.7313 88.4723 25.1478C88.8324 25.5686 89.3447 25.779 90.0091 25.779C90.8715 25.779 91.5938 25.421 92.1759 24.705C92.758 23.9889 93.0491 23.1058 93.0491 22.0554L93.0478 20.551Z" fill="white"/>
<path id="Vector_7" d="M107.481 15.7285V22.7315C107.481 23.6072 107.611 24.1923 107.872 24.4867C108.133 24.7811 108.749 24.9287 109.718 24.9295C110.165 24.9295 110.682 24.9079 111.269 24.8646V28.4822C109.849 28.7233 108.825 28.8439 108.199 28.8439C106.165 28.8439 104.722 28.4531 103.869 27.6713C103.017 26.8896 102.59 25.4759 102.589 23.4301V15.721H99.9698V11.9164H102.873L103.265 7.02894L107.481 6.70087V11.9164H111.039V15.721L107.481 15.7285Z" fill="white"/>
<path id="Vector_8" d="M118.618 28.4884H113.549V23.4213H118.618V28.4884Z" fill="white"/>
<path id="Vector_9" d="M127.31 5.64178V10.5292H122.42V5.64178H127.31ZM127.31 11.9238V28.4884H122.42V11.9238H127.31Z" fill="white"/>
<path id="Vector_10" d="M154.994 28.4884H150.113V19.321C150.113 18.0312 150.074 17.1917 149.998 16.8025C149.924 16.4177 149.71 16.0736 149.399 15.8357C149.077 15.5787 148.632 15.4503 148.063 15.4503C147.527 15.4503 146.98 15.6415 146.423 16.0241C145.866 16.4066 145.587 17.5056 145.586 19.321V28.4884H140.698V19.321C140.698 17.9971 140.638 17.1414 140.519 16.7538C140.403 16.3724 140.163 16.0405 139.838 15.8108C139.463 15.5583 139.018 15.432 138.566 15.4503C137.725 15.4503 137.099 15.7151 136.689 16.2449C136.279 16.7746 136.074 17.8 136.074 19.321V28.4884H131.334V11.9238H135.926V14.4498C136.704 12.5371 138.259 11.5807 140.591 11.5807C142.706 11.5807 144.234 12.5371 145.175 14.4498C146.09 12.5371 147.692 11.5807 149.98 11.5807C151.074 11.5807 152.015 11.8049 152.802 12.2531C153.59 12.7014 154.153 13.2864 154.491 14.0082C154.83 14.7293 155 15.97 155 17.7306L154.994 28.4884Z" fill="white"/>
</g>
</g>
</svg>
