<svg width="64" height="64" viewBox="0 0 64 64" fill="none" xmlns="http://www.w3.org/2000/svg">
<g id="telegram.svg" clip-path="url(#clip0_115_1821)">
<path id="Vector" d="M64 32C64 14.3269 49.6731 0 32 0C14.3269 0 0 14.3269 0 32C0 49.6731 14.3269 64 32 64C49.6731 64 64 49.6731 64 32Z" fill="#1EB6F9"/>
<path id="Vector_2" d="M26.6399 37.6882L26.0264 46.4241C26.9041 46.4241 27.2842 46.0423 27.74 45.5839L31.8547 41.6024L40.3808 47.9244C41.9444 48.8067 43.0461 48.3421 43.4679 46.4679L49.0644 19.9161L49.0659 19.9146C49.5619 17.5741 48.23 16.6589 46.7065 17.233L13.8107 29.9849C11.5656 30.8672 11.5996 32.1344 13.429 32.7086L21.8392 35.3572L41.3743 22.9808C42.2936 22.3645 43.1296 22.7055 42.4419 23.3219L26.6399 37.6882Z" fill="white"/>
</g>
<defs>
<clipPath id="clip0_115_1821">
<rect width="64" height="64" fill="white"/>
</clipPath>
</defs>
</svg>
