<svg width="64" height="64" viewBox="0 0 64 64" fill="none" xmlns="http://www.w3.org/2000/svg">
<g id="whatsapp.svg" clip-path="url(#clip0_115_1826)">
<path id="Vector" d="M64 32C64 14.3269 49.6731 0 32 0C14.3269 0 0 14.3269 0 32C0 49.6731 14.3269 64 32 64C49.6731 64 64 49.6731 64 32Z" fill="#00D26C"/>
<path id="Vector_2" fill-rule="evenodd" clip-rule="evenodd" d="M31.7066 13.0892H31.7158C41.9101 13.0892 50.2001 21.3837 50.2001 31.578C50.2001 41.7724 41.9101 50.0669 31.7158 50.0669C27.9557 50.0669 24.4682 48.9484 21.5446 47.0116L14.438 49.2834L16.7421 42.4148C14.5258 39.3711 13.2224 35.6225 13.2224 31.578C13.2224 21.3814 21.5123 13.0892 31.7066 13.0892ZM38.8463 41.8071C40.2584 41.502 42.0287 40.4574 42.4747 39.1978C42.9208 37.9359 42.9208 36.8612 42.7914 36.6324C42.6869 36.4509 42.4397 36.3319 42.0709 36.1543C41.9748 36.1081 41.8705 36.0579 41.7583 36.0015C41.2152 35.7311 38.5736 34.4254 38.0744 34.252C37.5844 34.0671 37.1175 34.1319 36.7478 34.6542C36.6775 34.7526 36.6073 34.8513 36.5376 34.9495C36.0914 35.5768 35.6611 36.182 35.3034 36.5678C34.9775 36.9144 34.4459 36.9583 33.9999 36.7735C33.9512 36.7532 33.8955 36.7307 33.8331 36.7055C33.1269 36.4202 31.5604 35.7876 29.6642 34.0995C28.065 32.6759 26.9787 30.9032 26.6644 30.3716C26.3558 29.8384 26.622 29.5258 26.868 29.2367L26.8816 29.2207C27.0402 29.0245 27.1942 28.8611 27.3489 28.6968C27.4602 28.5787 27.5718 28.4602 27.6859 28.3287C27.7029 28.3091 27.7194 28.2902 27.7354 28.2717C27.9777 27.9932 28.1219 27.8273 28.2845 27.4804C28.4694 27.1223 28.3376 26.7524 28.2059 26.4798C28.1153 26.2887 27.5554 24.9302 27.0747 23.764C26.869 23.265 26.6779 22.8012 26.5442 22.4792C26.186 21.6218 25.9133 21.5895 25.3702 21.5663C25.3535 21.5655 25.3368 21.5647 25.3197 21.5638C25.1481 21.5551 24.959 21.5455 24.7508 21.5455C24.0436 21.5455 23.3064 21.7535 22.8603 22.2088C22.8448 22.2247 22.8285 22.2412 22.8117 22.2584C22.241 22.8388 20.9698 24.1316 20.9698 26.7086C20.9698 29.2906 22.8018 31.7894 23.1408 32.2517C23.1502 32.2644 23.1584 32.2756 23.1654 32.2852C23.1858 32.3121 23.2242 32.3677 23.2802 32.4487C23.9723 33.4511 27.3435 38.3331 32.3706 40.4158C36.6184 42.1768 37.8802 42.0127 38.8463 41.8071Z" fill="white"/>
</g>
<defs>
<clipPath id="clip0_115_1826">
<rect width="64" height="64" fill="white"/>
</clipPath>
</defs>
</svg>
