<svg width="20" height="20" viewBox="0 0 20 20" fill="none" xmlns="http://www.w3.org/2000/svg">
<g clip-path="url(#clip0_2525_19)">
<path d="M9.97955 1.80127C12.6449 1.80127 12.9578 1.81316 14.0112 1.86068C14.9855 1.90424 15.5122 2.06662 15.8647 2.20523C16.332 2.38741 16.6647 2.60127 17.0132 2.94979C17.3617 3.2983 17.5795 3.63098 17.7578 4.0983C17.8924 4.45078 18.0588 4.97751 18.1023 5.95177C18.1498 7.00523 18.1617 7.31811 18.1617 9.98345C18.1617 12.6488 18.1498 12.9617 18.1023 14.0151C18.0588 14.9894 17.8964 15.5161 17.7578 15.8686C17.5756 16.3359 17.3617 16.6686 17.0132 17.0171C16.6647 17.3656 16.332 17.5835 15.8647 17.7617C15.5122 17.8963 14.9855 18.0627 14.0112 18.1062C12.9578 18.1538 12.6449 18.1656 9.97955 18.1656C7.3142 18.1656 7.00133 18.1538 5.94787 18.1062C4.97361 18.0627 4.44687 17.9003 4.0944 17.7617C3.62707 17.5795 3.2944 17.3656 2.94589 17.0171C2.59737 16.6686 2.37955 16.3359 2.20133 15.8686C2.06668 15.5161 1.90034 14.9894 1.85678 14.0151C1.80925 12.9617 1.79737 12.6488 1.79737 9.98345C1.79737 7.31811 1.80925 7.00523 1.85678 5.95177C1.90034 4.97751 2.06272 4.45078 2.20133 4.0983C2.38351 3.63098 2.59737 3.2983 2.94589 2.94979C3.2944 2.60127 3.62707 2.38345 4.0944 2.20523C4.44687 2.07058 4.97361 1.90424 5.94787 1.86068C7.00133 1.80919 7.3142 1.80127 9.97955 1.80127ZM9.97955 0.00325394C7.27064 0.00325394 6.93004 0.0151351 5.8647 0.0626599C4.80331 0.110185 4.07856 0.280482 3.44489 0.526026C2.78747 0.779492 2.23301 1.12405 1.67856 1.6785C1.1241 2.23296 0.783509 2.79137 0.526083 3.44484C0.280539 4.0785 0.110242 4.80325 0.0627171 5.8686C0.0151923 6.92999 0.00331116 7.27058 0.00331116 9.97949C0.00331116 12.6884 0.0151923 13.029 0.0627171 14.0943C0.110242 15.1557 0.280539 15.8805 0.526083 16.5181C0.779549 17.1755 1.1241 17.73 1.67856 18.2844C2.23301 18.8389 2.79143 19.1795 3.44489 19.4369C4.07856 19.6825 4.80331 19.8528 5.86866 19.9003C6.934 19.9478 7.27064 19.9597 9.98351 19.9597C12.6964 19.9597 13.033 19.9478 14.0984 19.9003C15.1597 19.8528 15.8845 19.6825 16.5221 19.4369C17.1795 19.1835 17.734 18.8389 18.2885 18.2844C18.8429 17.73 19.1835 17.1716 19.4409 16.5181C19.6865 15.8844 19.8568 15.1597 19.9043 14.0943C19.9518 13.029 19.9637 12.6924 19.9637 9.97949C19.9637 7.26662 19.9518 6.92999 19.9043 5.86464C19.8568 4.80325 19.6865 4.0785 19.4409 3.44088C19.1875 2.78345 18.8429 2.229 18.2885 1.67454C17.734 1.12009 17.1756 0.779492 16.5221 0.522066C15.8885 0.276521 15.1637 0.106224 14.0984 0.0586995C13.0291 0.0151351 12.6885 0.00325394 9.97955 0.00325394Z" fill="#1F2937"/>
<path d="M9.97953 4.85482C7.15181 4.85482 4.85478 7.14789 4.85478 9.97957C4.85478 12.8113 7.15181 15.1043 9.97953 15.1043C12.8073 15.1043 15.1043 12.8073 15.1043 9.97957C15.1043 7.15185 12.8073 4.85482 9.97953 4.85482ZM9.97953 13.3063C8.14191 13.3063 6.6528 11.8172 6.6528 9.97957C6.6528 8.14195 8.14191 6.65284 9.97953 6.65284C11.8172 6.65284 13.3063 8.14195 13.3063 9.97957C13.3063 11.8172 11.8172 13.3063 9.97953 13.3063Z" fill="#1F2937"/>
<path d="M15.3063 5.84895C15.9668 5.84895 16.5023 5.31346 16.5023 4.65291C16.5023 3.99235 15.9668 3.45687 15.3063 3.45687C14.6457 3.45687 14.1102 3.99235 14.1102 4.65291C14.1102 5.31346 14.6457 5.84895 15.3063 5.84895Z" fill="#1F2937"/>
</g>
<defs>
<clipPath id="clip0_2525_19">
<rect width="20" height="20" fill="white"/>
</clipPath>
</defs>
</svg>
