<svg width="98" height="98" viewBox="0 0 98 98" fill="none" xmlns="http://www.w3.org/2000/svg">
<g clip-path="url(#clip0_997_27743)">
<path fill-rule="evenodd" clip-rule="evenodd" d="M55.3962 47.6008C57.4984 45.498 60.1267 41.6436 58.5499 38.4309C57.5569 36.4452 55.5126 30.1957 57.382 28.0348C56.9143 31.2475 58.0238 34.8684 59.5429 37.5548C61.4707 41.2345 58.3745 46.491 55.3962 47.6008Z" stroke="#FF6600" stroke-width="0.000874107" stroke-miterlimit="2.61313" stroke-linecap="square" stroke-linejoin="round"/>
<path fill-rule="evenodd" clip-rule="evenodd" d="M55.3962 47.6008C57.4984 45.498 60.1267 41.6436 58.5499 38.4309C57.5569 36.4452 55.5126 30.1957 57.382 28.0348C56.9143 31.2475 58.0238 34.8684 59.5429 37.5548C61.4707 41.2345 58.3745 46.491 55.3962 47.6008Z" fill="#FF6600"/>
<path fill-rule="evenodd" clip-rule="evenodd" d="M51.4238 64.5975H49.5548C49.3215 64.5975 49.1465 64.7725 49.1465 65.0059V66.8749C49.1465 67.1082 49.3215 67.2844 49.5548 67.2844H51.4238C51.6583 67.2844 51.8333 67.1082 51.8333 66.8749V65.0059C51.8333 64.7725 51.6583 64.5975 51.4238 64.5975Z" fill="#FF6600"/>
<path fill-rule="evenodd" clip-rule="evenodd" d="M46.2279 64.5975H48.0969C48.3302 64.5975 48.5052 64.7725 48.5052 65.0059V66.8749C48.5052 67.1082 48.3302 67.2844 48.0969 67.2844H46.2279C45.9945 67.2844 45.8184 67.1082 45.8184 66.8749V65.0059C45.8184 64.7725 45.9945 64.5975 46.2279 64.5975Z" fill="#FF6600"/>
<path fill-rule="evenodd" clip-rule="evenodd" d="M46.2279 70.496H48.0969C48.3302 70.496 48.5052 70.321 48.5052 70.0877V68.2187C48.5052 67.9854 48.3302 67.8092 48.0969 67.8092H46.2279C45.9945 67.8092 45.8184 67.9854 45.8184 68.2187V70.0877C45.8184 70.321 45.9945 70.496 46.2279 70.496Z" fill="#FF6600"/>
<path fill-rule="evenodd" clip-rule="evenodd" d="M51.4238 70.496H49.5548C49.3215 70.496 49.1465 70.321 49.1465 70.0877V68.2187C49.1465 67.9854 49.3215 67.8092 49.5548 67.8092H51.4238C51.6583 67.8092 51.8333 67.9854 51.8333 68.2187V70.0877C51.8333 70.321 51.6583 70.496 51.4238 70.496Z" fill="#FF6600"/>
<path fill-rule="evenodd" clip-rule="evenodd" d="M53.8206 57.7056C53.5872 57.5889 53.2944 57.3544 52.8277 57.0044C52.3016 56.5949 50.9004 55.3687 49.8492 54.7259C49.2647 54.3759 48.5052 54.3176 47.8636 54.7259C47.3374 55.1354 46.9862 55.4271 46.4612 55.8366L32.7937 66.0577C31.5676 67.0506 30.6331 67.2256 31.6842 68.5684C31.9771 68.9779 32.3271 69.3862 32.6187 69.7957C33.4949 70.9636 33.6116 71.6647 35.1306 70.5541C38.2841 68.2184 41.4387 65.8232 44.6506 63.4876C45.7017 62.7281 46.7529 61.9102 47.7469 61.0924C48.7397 60.2757 48.9147 60.2757 49.9659 60.9757C50.9004 61.6186 51.7766 62.3197 52.7111 62.9626C55.5146 65.1232 58.7264 67.2256 61.4132 69.5029C61.8216 69.8541 62.2311 70.0874 62.6394 70.4374C63.9251 71.4897 64.2167 71.3136 64.8596 70.4374C65.2679 69.8541 65.8524 69.2696 66.2024 68.6851C66.4941 68.2184 66.7286 67.6934 66.4941 67.2839C66.3191 66.9922 62.8144 64.3637 61.3549 63.3126C60.9466 63.0197 58.9014 61.5019 58.7847 61.3852C58.6097 61.1519 58.6097 60.8007 58.6097 59.9246V49.7034C58.6097 49.3534 58.6097 49.4117 58.3181 49.4117H54.6967C54.4051 49.4117 54.3467 49.3534 54.3467 49.6451V57.2377C54.2884 57.5889 54.3467 57.9389 53.8206 57.7056Z" fill="#FF6600"/>
<path fill-rule="evenodd" clip-rule="evenodd" d="M44.8927 0.116545C40.2785 0.584378 37.2417 1.98555 34.087 4.02955C30.7585 6.19138 28.305 9.52105 26.4943 13.0245C25.7348 14.5435 25.0932 14.2507 22.9313 15.0685C11.5423 19.1577 5.352 31.5979 9.08884 43.3952C10.3745 47.4844 13.2947 51.8652 16.741 54.2009C19.2517 55.8949 21.1207 56.8877 24.217 57.8222C25.3265 58.1722 26.3777 57.9972 26.5527 59.1651C26.7872 60.2174 26.9027 61.3269 27.0788 62.3781C27.2538 63.3126 27.1955 64.8304 28.0717 64.9471C28.655 65.0066 31.6335 62.7864 31.8097 62.2031C31.9847 61.6186 31.8097 60.6257 31.4585 58.0556C31.1668 55.4271 31.1668 54.3759 30.8752 53.9092C30.5835 53.4997 30.1157 53.4997 28.8895 53.2664C23.5158 52.1569 18.1422 49.1784 16.0398 43.9797C12.9447 36.3287 15.047 27.2754 21.2385 22.5445C23.6908 20.6756 25.6765 19.7994 28.7728 18.9815C30.7585 18.4565 30.174 16.5875 33.562 12.6745C36.9488 8.76038 41.7975 6.24971 47.4617 6.36638C53.1282 6.24971 57.9757 8.76038 61.3625 12.6745C64.7505 16.5875 64.1077 18.4565 66.1517 18.9815C69.248 19.7994 71.2337 20.6756 73.6872 22.5445C79.9358 27.2754 82.0393 36.2704 78.8847 43.9797C76.7823 49.1784 71.4087 52.1569 66.035 53.2664C64.8088 53.4997 64.2838 53.4997 64.0493 53.9092C63.7577 54.3759 63.7577 55.4271 63.466 58.0556C63.1732 60.6257 62.9398 61.6186 63.1148 62.2031C63.2898 62.7864 66.3278 65.0066 66.8528 64.9471C67.7873 64.8304 67.729 63.3126 67.8457 62.3781C68.0218 61.3269 68.1385 60.2174 68.3718 59.1651C68.6052 58.0555 69.598 58.1722 70.7075 57.8222C73.8038 56.9461 75.7312 55.8949 78.1835 54.2009C81.6298 51.8652 84.55 47.4261 85.8357 43.3952C89.5153 31.5979 83.3238 19.1577 71.9932 15.0685C69.8325 14.3102 69.1897 14.5435 68.4302 13.0245C66.6195 9.52105 64.1672 6.19138 60.8375 4.02955C57.7423 1.98555 54.646 0.584378 50.0318 0.116545C49.1557 -0.000121627 48.2795 -0.00012207 47.4617 -0.00012207C46.645 -0.00012207 45.7688 -0.000121627 44.8927 0.116545Z" fill="#FF6600"/>
<path d="M56.896 96.6916C56.6047 96.6916 56.3683 96.5805 56.1861 96.3589C55.6211 95.671 56.0329 95.3377 56.4496 94.8L65.0883 83.6583C65.2025 83.5115 65.1664 83.2955 65.0351 83.1669C64.8963 83.0461 64.6892 83.0677 64.5754 83.2147L63.7906 84.2267H57.9067C57.3786 84.2267 56.9734 84.0436 56.6914 83.6771C56.4089 83.3107 56.268 82.8288 56.268 82.231H66.5376C66.8471 82.231 67.0881 82.3275 67.2615 82.5203C67.4344 82.7131 67.5207 82.9542 67.5207 83.2433C67.5207 83.5131 67.4387 83.7637 67.275 83.9952L59.386 94.1333H57.9728C57.7933 94.1333 57.6464 94.2888 57.6464 94.4792C57.6464 94.6693 57.7933 94.8251 57.9728 94.8251H66.6449C66.8556 94.9163 67.034 95.0566 67.1794 95.2455C67.4615 95.6119 67.6028 96.0937 67.6028 96.6916H56.896Z" stroke="black" stroke-width="0.00179533" stroke-miterlimit="2.61313"/>
<path fill-rule="evenodd" clip-rule="evenodd" d="M56.8961 96.6919C56.6045 96.6919 56.3688 96.5811 56.1868 96.3594C55.621 95.6711 56.0328 95.3386 56.4505 94.8007L65.0885 83.6579C65.2028 83.5109 65.1666 83.2951 65.036 83.1667C64.896 83.0466 64.6895 83.0676 64.5763 83.2146L63.7911 84.2272H57.9065C57.3791 84.2272 56.9743 84.0441 56.692 83.6766C56.4096 83.3102 56.2685 82.8284 56.2685 82.2311H66.5375C66.8478 82.2311 67.0881 82.3279 67.262 82.5204C67.4346 82.7129 67.521 82.9544 67.521 83.2437C67.521 83.5132 67.4393 83.7641 67.2748 83.9951L59.3858 94.1334H57.973C57.7933 94.1334 57.6463 94.2886 57.6463 94.4799C57.6463 94.6701 57.7933 94.8252 57.973 94.8252H66.6448C66.856 94.9162 67.0345 95.0574 67.1803 95.2452C67.4615 95.6116 67.6026 96.0934 67.6026 96.6919H56.8961Z" fill="black"/>
<path d="M79.127 84.3482C79.127 82.9568 79.8937 82.251 81.4955 82.251C81.489 82.7729 81.4972 83.0315 81.5004 83.2072C81.5138 83.8618 83.112 82.149 86.249 82.261C87.7922 82.316 89.0137 82.7122 89.91 83.6148C90.8062 84.5174 91.2543 85.683 91.2543 87.1122V95.0653C91.2543 95.6862 91.0493 96.1418 90.6391 96.4336C90.2294 96.7249 89.6047 96.8707 88.7659 96.8707V87.3661C88.7659 86.4631 88.5084 85.7489 87.9935 85.2223C87.4786 84.6959 86.6971 84.4327 85.6483 84.4327C84.9428 84.4327 84.28 84.5783 83.6606 84.8698C83.041 85.1614 82.5452 85.5561 82.1732 86.0546C81.8014 86.5525 81.6155 87.0933 81.6155 87.6763V95.0653C81.6155 95.6862 81.4105 96.1418 81.0004 96.4336C80.5906 96.7249 79.9659 96.8707 79.127 96.8707V84.3482Z" stroke="black" stroke-width="0.00268061" stroke-miterlimit="2.61313"/>
<path d="M79.1289 84.3484C79.1289 82.9566 79.8954 82.2508 81.4972 82.2508C81.4914 82.7734 81.4996 83.0313 81.5031 83.2074C81.5159 83.8619 83.1142 82.1493 86.2514 82.2613C87.7937 82.3161 89.0164 82.7116 89.9124 83.6146C90.8084 84.5176 91.2564 85.6831 91.2564 87.1123V95.0655C91.2564 95.6861 91.0511 96.1423 90.6416 96.434C90.2321 96.7256 89.6067 96.8715 88.7679 96.8715V87.3666C88.7679 86.4636 88.5101 85.7484 87.9956 85.2223C87.4811 84.6961 86.6994 84.4324 85.6506 84.4324C84.9447 84.4324 84.2821 84.5783 83.6626 84.8699C83.0431 85.1616 82.5472 85.5559 82.1751 86.0541C81.8029 86.5523 81.6174 87.0936 81.6174 87.6758V95.0655C81.6174 95.6861 81.4121 96.1423 81.0026 96.434C80.5931 96.7256 79.9677 96.8715 79.1289 96.8715V84.3484Z" fill="black"/>
<path d="M16.3416 94.2507C11.7497 94.2507 9.18611 90.5041 9.18611 86.6728C9.18611 82.8416 11.7497 79.0946 16.3416 79.0946C18.4826 79.0946 20.201 79.9118 21.4124 81.1794C21.666 81.4327 22.0602 81.4893 22.3701 81.2922L23.4406 80.5878C23.8352 80.3341 23.9198 79.7709 23.5815 79.4326C21.8069 77.5733 19.2714 76.4466 16.3416 76.4466C10.5103 76.4466 6.3125 80.8976 6.3125 86.6728C6.3125 92.448 10.5103 96.8709 16.3416 96.8709C19.2714 96.8709 21.8069 95.7439 23.5815 93.9127C23.9198 93.5747 23.8352 93.0112 23.4406 92.7579L22.3701 92.0535C22.0602 91.8283 21.666 91.8845 21.4124 92.1662C20.201 93.4338 18.4826 94.2507 16.3416 94.2507Z" stroke="black" stroke-width="0.0034836" stroke-miterlimit="2.61313"/>
<path d="M16.3412 94.2506C11.7492 94.2506 9.186 90.5045 9.186 86.6731C9.186 82.8418 11.7492 79.0945 16.3412 79.0945C18.482 79.0945 20.2005 79.9123 21.4115 81.1793C21.6658 81.4325 22.0602 81.4896 22.3693 81.2925L23.4403 80.5878C23.8347 80.3346 23.9187 79.7711 23.5803 79.4328C21.8058 77.5731 19.2707 76.4473 16.3412 76.4473C10.5102 76.4473 6.3125 80.8981 6.3125 86.6731C6.3125 92.4481 10.5102 96.871 16.3412 96.871C19.2707 96.871 21.8058 95.744 23.5803 93.9135C23.9187 93.5751 23.8347 93.0116 23.4403 92.7585L22.3693 92.0538C22.0602 91.8286 21.6658 91.8846 21.4115 92.167C20.2005 93.434 18.482 94.2506 16.3412 94.2506Z" fill="black"/>
<path d="M71.9844 83.7788C71.9844 83.274 72.2006 82.8819 72.6328 82.6024C73.0651 82.3229 73.6786 82.183 74.4727 82.183V95.2754C74.4727 95.78 74.2567 96.1719 73.8241 96.4518C73.3918 96.7312 72.7784 96.8711 71.9844 96.8711V83.7788Z" stroke="black" stroke-width="0.00261162" stroke-miterlimit="2.61313"/>
<path d="M71.9824 83.7785C71.9824 83.2745 72.1994 82.8825 72.6311 82.6025C73.0639 82.3237 73.6764 82.1837 74.4709 82.1837V95.2749C74.4709 95.78 74.2551 96.172 73.8222 96.452C73.3906 96.7309 72.7769 96.8709 71.9824 96.8709V83.7785Z" fill="black"/>
<path d="M47.2695 96.8708C46.112 96.8708 45.064 96.6526 44.1247 96.216C43.1856 95.7798 42.455 95.1868 41.9332 94.4374C41.4113 93.6878 41.1504 92.8484 41.1504 91.9185V87.2512C41.1504 86.3024 41.4113 85.4389 41.9332 84.661C42.455 83.8832 43.1807 83.2664 44.1105 82.811C45.0402 82.3556 46.0932 82.1281 47.2695 82.1281C48.4458 82.1281 49.5038 82.3556 50.443 82.811C51.3821 83.2664 52.1127 83.8832 52.6343 84.661C53.1561 85.4389 53.417 86.3024 53.417 87.2512V91.9185C53.417 92.8484 53.1515 93.6878 52.6201 94.4374C52.0889 95.1868 51.3584 95.7798 50.4288 96.216C49.4988 96.6526 48.4458 96.8708 47.2695 96.8708ZM47.2695 94.7361C48.4082 94.7361 49.3139 94.4659 49.9876 93.9248C50.6612 93.3842 50.9979 92.6774 50.9979 91.8047V87.3364C50.9979 86.7745 50.8696 86.2781 50.6136 85.8463L51.5284 84.6802C51.611 84.5747 51.5925 84.421 51.487 84.338C51.3815 84.2552 51.2277 84.2738 51.1451 84.3792L50.3153 85.4368C50.2168 85.3244 50.1073 85.218 49.9876 85.1164C49.3139 84.5473 48.4082 84.2625 47.2695 84.2625C46.15 84.2625 45.2489 84.5473 44.5659 85.1164C43.8827 85.6856 43.5411 86.4257 43.5411 87.3364V91.8047C43.5411 92.4261 43.712 92.9635 44.0537 93.4165L43.1763 94.5346C43.0937 94.6402 43.1121 94.794 43.2177 94.877C43.3231 94.9596 43.4773 94.9412 43.5599 94.8356L44.386 93.7826C44.439 93.8312 44.4939 93.8789 44.5518 93.9248C45.225 94.4659 46.1312 94.7361 47.2695 94.7361Z" stroke="#FF6600" stroke-width="0.000615476" stroke-miterlimit="2.61313"/>
<path fill-rule="evenodd" clip-rule="evenodd" d="M47.2696 96.8708C46.1122 96.8708 45.0634 96.6527 44.1242 96.2163C43.1851 95.78 42.4547 95.1873 41.9332 94.4372C41.4106 93.6882 41.1504 92.8482 41.1504 91.9183V87.2517C41.1504 86.3032 41.4106 85.4387 41.9332 84.6617C42.4547 83.8835 43.1804 83.2663 44.1102 82.8113C45.0401 82.3563 46.0924 82.1288 47.2696 82.1288C48.4456 82.1288 49.5037 82.3563 50.4429 82.8113C51.3821 83.2663 52.1124 83.8835 52.6339 84.6617C53.1554 85.4387 53.4167 86.3032 53.4167 87.2517V91.9183C53.4167 92.8482 53.1507 93.6882 52.6199 94.4372C52.0891 95.1873 51.3576 95.78 50.4289 96.2163C49.4991 96.6527 48.4456 96.8708 47.2696 96.8708ZM47.2696 94.7358C48.4082 94.7358 49.3136 94.4663 49.9867 93.925C50.6611 93.3848 50.9971 92.6778 50.9971 91.8052V87.3368C50.9971 86.7745 50.8687 86.2787 50.6132 85.847L51.5279 84.6803C51.6107 84.5753 51.5921 84.4213 51.4871 84.3385C51.3809 84.2557 51.2269 84.2743 51.1452 84.3793L50.3146 85.4375C50.2166 85.3243 50.1069 85.2182 49.9867 85.1167C49.3136 84.5473 48.4082 84.2627 47.2696 84.2627C46.1496 84.2627 45.2489 84.5473 44.5652 85.1167C43.8827 85.686 43.5409 86.4257 43.5409 87.3368V91.8052C43.5409 92.4258 43.7112 92.9637 44.0531 93.4163L43.1757 94.5352C43.0929 94.6402 43.1116 94.7942 43.2177 94.877C43.3227 94.9598 43.4767 94.9412 43.5596 94.8362L44.3856 93.7827C44.4392 93.8317 44.4941 93.8795 44.5512 93.925C45.2244 94.4663 46.1309 94.7358 47.2696 94.7358Z" fill="#FF6600"/>
<path d="M32.4707 96.8708C31.3132 96.8708 30.2648 96.6526 29.3257 96.216C28.3864 95.7798 27.6559 95.1868 27.1344 94.4374C26.6125 93.6878 26.3516 92.8484 26.3516 91.9185V87.2512C26.3516 86.3024 26.6125 85.4389 27.1344 84.661C27.6559 83.8832 28.3818 83.2664 29.3114 82.811C30.241 82.3556 31.2943 82.1281 32.4707 82.1281C33.647 82.1281 34.7046 82.3556 35.6438 82.811C36.5831 83.2664 37.3135 83.8832 37.8354 84.661C38.3574 85.4389 38.6182 86.3024 38.6182 87.2512V91.9185C38.6182 92.8484 38.3523 93.6878 37.8213 94.4374C37.2898 95.1868 36.5596 95.7798 35.6296 96.216C34.7 96.6526 33.647 96.8708 32.4707 96.8708ZM32.4707 94.7361C33.609 94.7361 34.5151 94.4659 35.1884 93.9248C35.8621 93.3842 36.1991 92.6774 36.1991 91.8047V87.3364C36.1991 86.7745 36.0708 86.2781 35.8145 85.8463L36.7295 84.6802C36.8122 84.5747 36.7937 84.421 36.6882 84.338C36.5827 84.2552 36.4285 84.2738 36.3459 84.3792L35.5162 85.4368C35.4176 85.3244 35.3085 85.218 35.1884 85.1164C34.5151 84.5473 33.609 84.2625 32.4707 84.2625C31.3512 84.2625 30.45 84.5473 29.7668 85.1164C29.0839 85.6856 28.7423 86.4257 28.7423 87.3364V91.8047C28.7423 92.4261 28.9132 92.9635 29.2545 93.4165L28.3775 94.5346C28.2945 94.6402 28.3133 94.794 28.4189 94.877C28.5243 94.9596 28.6781 94.9412 28.7611 94.8356L29.5872 93.7826C29.6398 93.8312 29.695 93.8789 29.7526 93.9248C30.4262 94.4659 31.332 94.7361 32.4707 94.7361Z" stroke="#FF6600" stroke-width="0.000615476" stroke-miterlimit="2.61313"/>
<path fill-rule="evenodd" clip-rule="evenodd" d="M32.4707 96.8708C31.3134 96.8708 30.2657 96.6527 29.3266 96.2163C28.3874 95.78 27.6559 95.1873 27.1344 94.4372C26.6129 93.6882 26.3516 92.8482 26.3516 91.9183V87.2517C26.3516 86.3032 26.6129 85.4387 27.1344 84.6617C27.6559 83.8835 28.3827 83.2663 29.3114 82.8113C30.2412 82.3563 31.2947 82.1288 32.4707 82.1288C33.6479 82.1288 34.7049 82.3563 35.6441 82.8113C36.5832 83.2663 37.3136 83.8835 37.8362 84.6617C38.3577 85.4387 38.6191 86.3032 38.6191 87.2517V91.9183C38.6191 92.8482 38.3531 93.6882 37.8222 94.4372C37.2902 95.1873 36.5599 95.78 35.6301 96.2163C34.7002 96.6527 33.6479 96.8708 32.4707 96.8708ZM32.4707 94.7358C33.6094 94.7358 34.5159 94.4663 35.1891 93.925C35.8622 93.3848 36.1994 92.6778 36.1994 91.8052V87.3368C36.1994 86.7745 36.0711 86.2787 35.8144 85.847L36.7302 84.6803C36.8131 84.5753 36.7944 84.4213 36.6882 84.3385C36.5832 84.2557 36.4292 84.2743 36.3464 84.3793L35.5169 85.4375C35.4177 85.3243 35.3092 85.2182 35.1891 85.1167C34.5159 84.5473 33.6094 84.2627 32.4707 84.2627C31.3519 84.2627 30.4501 84.5473 29.7676 85.1167C29.0839 85.686 28.7432 86.4257 28.7432 87.3368V91.8052C28.7432 92.4258 28.9136 92.9637 29.2554 93.4163L28.3781 94.5352C28.2952 94.6402 28.3139 94.7942 28.4189 94.877C28.5251 94.9598 28.6791 94.9412 28.7619 94.8362L29.5879 93.7827C29.6404 93.8317 29.6952 93.8795 29.7524 93.925C30.4267 94.4663 31.3321 94.7358 32.4707 94.7358Z" fill="#FF6600"/>
</g>
<defs>
<clipPath id="clip0_997_27743">
<rect width="98" height="98" fill="white"/>
</clipPath>
</defs>
</svg>
