<svg width="20" height="20" viewBox="0 0 20 20" fill="none" xmlns="http://www.w3.org/2000/svg">
<path d="M19.58 5.05003C20 6.65003 20 9.99003 20 9.99003C20 9.99003 20 13.33 19.58 14.93C19.36 15.81 18.68 16.51 17.82 16.75C16.26 17.19 10 17.19 10 17.19C10 17.19 3.74 17.19 2.18 16.75C1.32 16.51 0.64 15.81 0.42 14.93C0 13.33 0 9.99003 0 9.99003C0 9.99003 0 6.65003 0.42 5.05003C0.64 4.17003 1.32 3.47003 2.18 3.23003C3.74 2.81003 10 2.81003 10 2.81003C10 2.81003 16.26 2.81003 17.82 3.23003C18.68 3.47003 19.36 4.17003 19.58 5.05003ZM8.12 13.43L13.12 10.31L8.12 7.19003V13.43Z" fill="#1F2937"/>
</svg>
